<?xml version="1.0" encoding="utf-8"?>
<!-- Generator: Adobe Illustrator 27.2.0, SVG Export Plug-In . SVG Version: 6.00 Build 0)  -->
<svg version="1.1" id="Calque_1" xmlns="http://www.w3.org/2000/svg" xmlns:xlink="http://www.w3.org/1999/xlink" x="0px" y="0px"
	 viewBox="0 0 222 222.5" style="enable-background:new 0 0 222 222.5;" xml:space="preserve">
<style type="text/css">
	.st0{enable-background:new    ;}
	.st1{fill:#FFFFFF;}
	.st2{clip-path:url(#SVGID_00000096040493648705434090000007763154286615043980_);}
	.st3{fill:none;}
</style>
<g id="LOGO_MAIN_WHITE" transform="translate(1)">
	<g class="st0">
		<path class="st1" d="M8.4,178.7H0.1v-4h21.4v4h-8.4V200H8.4V178.7z"/>
		<path class="st1" d="M50.9,194.1H38.3l-2.5,5.8H31l11.3-25.2h4.6L58.3,200h-4.9L50.9,194.1z M49.3,190.5l-4.8-11l-4.7,11H49.3z"/>
		<path class="st1" d="M88.8,200l-5.1-7.4c-0.2,0-0.5,0-1,0H77v7.3h-4.7v-25.2h10.4c2.2,0,4.1,0.4,5.7,1.1s2.9,1.8,3.7,3.1
			c0.9,1.3,1.3,2.9,1.3,4.8c0,1.9-0.5,3.5-1.4,4.9c-0.9,1.4-2.2,2.4-4,3.1l5.8,8.3H88.8z M87.1,180c-1.1-0.9-2.6-1.3-4.6-1.3H77v10
			h5.5c2,0,3.6-0.4,4.6-1.3c1.1-0.9,1.6-2.1,1.6-3.7C88.7,182.1,88.1,180.9,87.1,180z"/>
		<path class="st1" d="M125.7,194.1h-12.6l-2.5,5.8h-4.8l11.3-25.2h4.6l11.4,25.2h-4.9L125.7,194.1z M124.2,190.5l-4.8-11l-4.7,11
			H124.2z"/>
		<path class="st1" d="M182.7,174.8l-8.4,25.2h-5l-6.2-18.6l-6.3,18.6h-5l-8.4-25.2h4.9l6.3,19.2l6.5-19.2h4.3l6.4,19.3l6.4-19.3
			H182.7z"/>
		<path class="st1" d="M212.8,194.1h-12.6l-2.5,5.8h-4.8l11.3-25.2h4.6l11.4,25.2h-4.9L212.8,194.1z M211.3,190.5l-4.8-11l-4.7,11
			H211.3z"/>
	</g>
	<g class="st0">
		<path class="st1" d="M76.6,212.6h1.9v8.4h-1.9v-3.3h-3.3v3.3h-1.9v-8.4h1.9v3.5h3.3V212.6z"/>
		<path class="st1" d="M97.2,219.8c-0.8,0.8-1.9,1.2-3.1,1.2c-1.2,0-2.3-0.4-3.1-1.2c-0.8-0.8-1.3-1.9-1.3-3.1
			c0-1.2,0.4-2.3,1.3-3.1c0.8-0.8,1.9-1.2,3.1-1.2c1.2,0,2.3,0.4,3.1,1.2s1.3,1.9,1.3,3.1C98.5,217.9,98.1,219,97.2,219.8z
			 M96.6,216.7c0-0.7-0.2-1.4-0.7-1.9c-0.5-0.5-1.1-0.8-1.8-0.8s-1.3,0.3-1.8,0.8c-0.5,0.5-0.7,1.2-0.7,1.9s0.2,1.4,0.7,1.9
			c0.5,0.5,1.1,0.8,1.8,0.8s1.3-0.3,1.8-0.8C96.4,218.1,96.6,217.5,96.6,216.7z"/>
		<path class="st1" d="M113,214.2v6.8h-1.9v-6.8h-2.4v-1.6h6.6v1.6H113z"/>
		<path class="st1" d="M132.4,212.6v1.7h-4.2v1.7h3.8v1.6h-3.8v1.7h4.3v1.7h-6.2v-8.4H132.4z"/>
		<path class="st1" d="M143.8,221v-8.4h1.9v6.7h3.6v1.7H143.8z"/>
	</g>
	<g id="Component_100_3" transform="translate(38.5)">
		<g id="CIGLE" transform="translate(0.035)">
			<g id="Path_4266">
				<path class="st1" d="M32.9,110.5c-16.8-18-20.3-46.4-3.2-69.4c18.4,1.3,32.6,10.2,41.5,23.2c9.1-13.3,23.9-22.4,43-23.2
					c7.4,9.9,11.3,20.5,11.3,32.9c0,29.5-24,53.5-53.5,53.5C57.2,127.4,43,121.3,32.9,110.5 M31.8,45.5c-5.9,8.3-9.1,18.2-9,28.4
					c0,29.3,25.7,51.2,51.3,49.2c39.6-1.6,60.3-46.5,38.1-77.7c-16.2,1-30.8,10-39.1,23.9l-1.8,3.1l-1.8-3.1
					C61.3,55.8,47.4,47,31.8,45.5"/>
			</g>
			<g id="Path_4267">
				<path class="st1" d="M51.8,76.9C46.2,73.2,33,63.6,11.8,63.6c-3.9,0-7.8,0.4-11.7,1l0.5-2.9C7.3,22.2,44.8-4.3,84.2,2.5
					c30.3,5.2,54.1,29,59.2,59.3l0.5,2.9c-4.1-0.7-8.2-1.1-12.4-1.1c-12.9,0-25.5,3.7-36.2,10.8l-3.8,2.5l0.5-4.5
					c2.1-17.5-5.8-34.7-20.4-44.5c-14.6,9.8-22.5,27-20.4,44.5L51.8,76.9z M46.7,68.6c-0.6-17.5,7.4-34.7,24.9-45.8
					c17.7,11.3,25.5,28.5,24.9,45.8c12.8-7.3,27.5-10.4,42.1-8.9c-7.9-36.8-44.1-60.3-81-52.5C31.4,12.9,10.9,33.4,5.3,59.6
					C19.7,58.3,34.2,61.4,46.7,68.6"/>
			</g>
			<g id="Path_4268">
				<path class="st1" d="M24.4,128.6c-13-11.3-21.6-26.9-24.1-44L0,82.5c3.5-0.5,7.1-0.7,10.7-0.8c17.2,0,33.9,6.1,47,17.3
					c3.9-4.9,8.6-9.1,14-12.3C77.1,90,82,94.3,85.9,99.4c13.1-11.4,30-17.7,47.4-17.7c3.6,0,7.2,0.3,10.7,0.8
					C134.9,143.6,66.3,165,24.4,128.6 M4.9,86.2c6.8,37.1,42.3,61.6,79.4,54.8c27.9-5.1,49.7-26.9,54.8-54.8
					c-19.1-1.7-38,4.8-52.1,17.9l-1.8,1.7c-3.5-5.5-8.1-10.2-13.5-14c-5.3,3.6-9.8,8.2-13.3,13.5l-1.8-1.6
					C42.6,90.9,23.8,84.6,4.9,86.2"/>
			</g>
		</g>
		<g id="_1619b6eb-82a9-47d4-8227-bf4dc5cca55f">
			<g>
				<defs>
					<rect id="SVGID_1_" y="2" width="144" height="144"/>
				</defs>
				<clipPath id="SVGID_00000101075966733119052570000006198780187553016204_">
					<use xlink:href="#SVGID_1_"  style="overflow:visible;"/>
				</clipPath>
			</g>
		</g>
	</g>
</g>
</svg>
