<svg xmlns="http://www.w3.org/2000/svg" xmlns:xlink="http://www.w3.org/1999/xlink" width="30" height="22" viewBox="0 0 30 22">
  <defs>
    <clipPath id="clip-path">
      <rect id="Rectangle_1585" data-name="Rectangle 1585" width="30" height="22" transform="translate(-0.436 -0.454)" fill="#3b3b3b" stroke="#3b3b3b" stroke-width="0.5"/>
    </clipPath>
  </defs>
  <g id="icon-bed" transform="translate(0 0)">
    <g id="Group_5743" data-name="Group 5743" transform="translate(0.436 0.454)">
      <g id="Group_5742" data-name="Group 5742" clip-path="url(#clip-path)">
        <path id="Path_4334" data-name="Path 4334" d="M26.115,9.08V2.511a.5.5,0,0,0-.5-.5H23.6a2.5,2.5,0,0,1-1.776-.735l-.244-.244A3.492,3.492,0,0,0,19.1,0H9.988a3.492,3.492,0,0,0-2.43,1.028l-.244.244a2.5,2.5,0,0,1-1.775.736H3.515a.5.5,0,0,0-.5.5V9.08A3.518,3.518,0,0,0,0,12.555V20.59a.5.5,0,0,0,.5.5H28.626a.5.5,0,0,0,.5-.5V12.555A3.518,3.518,0,0,0,26.115,9.08M4.018,3.013H5.539a3.492,3.492,0,0,0,2.486-1.03l.244-.244A2.5,2.5,0,0,1,10.044,1H19.1a2.5,2.5,0,0,1,1.776.735l.244.244A3.493,3.493,0,0,0,23.6,3.013H25.11V9.039H23.1V7.533A2.514,2.514,0,0,0,20.59,5.022H16.573a2.5,2.5,0,0,0-2.009,1.02,2.5,2.5,0,0,0-2.009-1.02H8.537A2.514,2.514,0,0,0,6.026,7.533V9.039H4.018ZM22.1,7.533V9.039H15.066V7.533a1.508,1.508,0,0,1,1.507-1.507H20.59A1.508,1.508,0,0,1,22.1,7.533m-8.035,0V9.039H7.031V7.533A1.508,1.508,0,0,1,8.537,6.026h4.018a1.508,1.508,0,0,1,1.507,1.507M28.124,20.088H1V16.07H28.124Zm0-5.022H1V12.555a2.514,2.514,0,0,1,2.511-2.511h22.1a2.514,2.514,0,0,1,2.511,2.511Z" transform="translate(0 0)" fill="#3b3b3b" stroke="#3b3b3b" stroke-width="0.5"/>
      </g>
    </g>
  </g>
</svg>
