<svg xmlns="http://www.w3.org/2000/svg" xmlns:xlink="http://www.w3.org/1999/xlink" width="56" height="56" viewBox="0 0 56 56">
  <defs>
    <clipPath id="clip-path">
      <rect id="Rectangle_1597" data-name="Rectangle 1597" width="56" height="56" transform="translate(0 -0.605)" fill="none"/>
    </clipPath>
  </defs>
  <g id="pdj" transform="translate(-1 0.605)">
    <g id="Group_5772" data-name="Group 5772" transform="translate(1 0)" clip-path="url(#clip-path)">
      <path id="Path_4368" data-name="Path 4368" d="M47.625,134.942a5.161,5.161,0,0,0,8.037-4.3V128.9a5.179,5.179,0,0,0-5.173-5.173,5.1,5.1,0,0,0-2.035.424L48.544,123a2.558,2.558,0,0,0-2.551-2.754H25.356A2.558,2.558,0,0,0,22.805,123l.566,7.353a14.146,14.146,0,0,0-3.814-.522h-.044a13.807,13.807,0,0,0-5.792,1.25,1.866,1.866,0,0,0-1.067,1.454,14.779,14.779,0,0,0-6.529,3.1,1.859,1.859,0,0,0-.354,2.457l.2.307-2.206,2.522A4.9,4.9,0,0,0,2.722,142.9H.816a.815.815,0,0,0-.757,1.118l1.086,2.714a3.414,3.414,0,0,0,3.184,2.156H51.334a3.413,3.413,0,0,0,3.184-2.156L55.6,144.02a.815.815,0,0,0-.757-1.118h-8.58a4.271,4.271,0,0,0,.926-2.341Zm.678-8.812a3.509,3.509,0,0,1,2.187-.77,3.546,3.546,0,0,1,3.542,3.542v1.743a3.533,3.533,0,0,1-6.25,2.267ZM7.174,136.884a13.107,13.107,0,0,1,5.619-2.713l.033.273a.815.815,0,1,0,1.619-.194l-.174-1.45a.236.236,0,0,1,.138-.241,12.166,12.166,0,0,1,5.1-1.1h.044a12.166,12.166,0,0,1,5.1,1.1.236.236,0,0,1,.138.241l-1.212,10.1h-8.1l-.608-5.063a.815.815,0,0,0-1.619.194l.584,4.869h-2.9l-3.81-5.715a.227.227,0,0,1,.046-.3M5,141.994l1.916-2.19,2.065,3.1H4.439A3.227,3.227,0,0,1,5,141.994m41.922-19.121-1.351,17.563A2.683,2.683,0,0,1,42.9,142.9h-.258a.815.815,0,1,0,0,1.631h11l-.638,1.6a1.791,1.791,0,0,1-1.67,1.131H4.329a1.79,1.79,0,0,1-1.67-1.131l-.638-1.6h37.14a.815.815,0,1,0,0-1.631H36.348A4.9,4.9,0,0,0,35.3,140.92L33.094,138.4l.2-.307a1.859,1.859,0,0,0-.354-2.457,14.779,14.779,0,0,0-6.529-3.1,1.866,1.866,0,0,0-1.067-1.454c-.1-.046-.2-.089-.3-.133l-.621-8.075a.928.928,0,0,1,.925-1H45.993a.928.928,0,0,1,.925,1M31.942,137.187l-3.81,5.715h-2.9l1.048-8.732a13.108,13.108,0,0,1,5.619,2.713.227.227,0,0,1,.046.3m.215,2.617,1.916,2.19a3.231,3.231,0,0,1,.557.908H30.092Z" transform="translate(0 -107.172)"/>
      <path id="Path_4369" data-name="Path 4369" d="M314.867,5.005c-.421-.386-.607-.575-.607-1s.186-.609.607-.995A2.8,2.8,0,0,0,316,.815a.815.815,0,0,0-1.631,0c0,.421-.186.609-.607.995a2.8,2.8,0,0,0-1.136,2.2,2.806,2.806,0,0,0,1.136,2.2c.421.386.607.575.607,1s-.186.612-.607,1a2.806,2.806,0,0,0-1.136,2.2.815.815,0,0,0,1.631,0c0-.423.186-.612.607-1A2.806,2.806,0,0,0,316,7.2a2.807,2.807,0,0,0-1.136-2.2" transform="translate(-278.641)"/>
      <path id="Path_4370" data-name="Path 4370" d="M283.112,21a4.329,4.329,0,0,1-.916-2.7,4.5,4.5,0,0,1,.165-1.227.815.815,0,0,0-1.569-.445,6.126,6.126,0,0,0-.227,1.672,5.924,5.924,0,0,0,1.254,3.694A.815.815,0,1,0,283.112,21" transform="translate(-250.063 -14.29)"/>
      <path id="Path_4371" data-name="Path 4371" d="M352.565,11.154a5.861,5.861,0,0,0,.828-2.192.815.815,0,0,0-1.61-.26,4.309,4.309,0,0,1-.857,1.955.815.815,0,0,0,0,.994,4.459,4.459,0,0,1,.464,4.659.815.815,0,1,0,1.458.73,6.1,6.1,0,0,0-.284-5.886" transform="translate(-312.624 -7.145)"/>
    </g>
  </g>
</svg>
