<svg xmlns="http://www.w3.org/2000/svg" width="30" height="30" viewBox="0 0 30 30">
  <g id="Group_5852" data-name="Group 5852" transform="translate(-881.25 -3475.501)">
    <rect id="Rectangle_1641" data-name="Rectangle 1641" width="30" height="30" transform="translate(881.25 3475.501)" fill="#fff" opacity="0"/>
    <g id="icon-card" transform="translate(882.28 3480.341)">
      <line id="Line_446" data-name="Line 446" x2="8.708" transform="translate(4.838 15.482)" fill="none" stroke="#3b3b3b" stroke-linecap="square" stroke-miterlimit="10" stroke-width="2"/>
      <line id="Line_447" data-name="Line 447" x2="3.87" transform="translate(19.352 15.482)" fill="none" stroke="#3b3b3b" stroke-linecap="square" stroke-miterlimit="10" stroke-width="2"/>
      <path id="Path_2338" data-name="Path 2338" d="M28.035,29.32H3.9a1.871,1.871,0,0,1-1.9-1.9V10.9A1.871,1.871,0,0,1,3.9,9h24.13a1.871,1.871,0,0,1,1.9,1.9v16.51a1.871,1.871,0,0,1-1.9,1.9Z" transform="translate(-1.999 -8.999)" fill="none" stroke="#3b3b3b" stroke-linecap="square" stroke-miterlimit="10" stroke-width="2"/>
      <path id="Path_2339" data-name="Path 2339" d="M31.189,21.646a2.5,2.5,0,0,0,0-3.038" transform="translate(-12.654 -12.506)" fill="none" stroke="#3b3b3b" stroke-linecap="square" stroke-miterlimit="10" stroke-width="2"/>
      <path id="Path_2340" data-name="Path 2340" d="M35.991,22.618a6.314,6.314,0,0,0,0-7.611" transform="translate(-14.406 -11.192)" fill="none" stroke="#3b3b3b" stroke-linecap="square" stroke-miterlimit="10" stroke-width="2"/>
      <ellipse id="Ellipse_107" data-name="Ellipse 107" cx="1.028" cy="0.968" rx="1.028" ry="0.968" transform="translate(13.97 6.773)" fill="#3b3b3b"/>
      <rect id="Rectangle_935" data-name="Rectangle 935" width="4.838" height="3.87" transform="translate(4.838 4.837)" fill="none" stroke="#3b3b3b" stroke-linecap="square" stroke-miterlimit="10" stroke-width="2"/>
    </g>
  </g>
</svg>
