<svg xmlns="http://www.w3.org/2000/svg" width="18.7" height="21.699" viewBox="0 0 18.7 21.699"><g transform="translate(-358.65 0.35)"><path d="M361.875,11h-15.75A1.071,1.071,0,0,0,345,12v19.46c0,.555.366.7.821.308l7.723-6.574a.542.542,0,0,1,.659-.005l7.97,6.594c.456.379.827.232.827-.323V12A1.068,1.068,0,0,0,361.875,11Zm-.563,18.021-5.968-4.938a2.354,2.354,0,0,0-2.958.015l-5.7,4.852V12.515h14.624Z" transform="translate(14 -11)"/><path d="M346.125,10.65h15.75A1.42,1.42,0,0,1,363.35,12v19.46c0,.61-.358.884-.714.884a1.091,1.091,0,0,1-.687-.291l-7.97-6.594a.176.176,0,0,0-.1-.029.174.174,0,0,0-.107.032l-7.722,6.573a1.088,1.088,0,0,1-.695.3c-.35,0-.7-.271-.7-.878V12A1.42,1.42,0,0,1,346.125,10.65Zm16.5,21a.442.442,0,0,0,.029-.182V12a.723.723,0,0,0-.775-.655h-15.75a.723.723,0,0,0-.775.655v19.46a.477.477,0,0,0,.025.175.6.6,0,0,0,.219-.133l7.724-6.575a.891.891,0,0,1,1.107-.01l7.972,6.6A.556.556,0,0,0,362.621,31.647ZM346.338,12.165h15.324v17.6l-6.541-5.412a2,2,0,0,0-2.508.012l-6.275,5.343Zm14.624.7H347.038V28.192l5.121-4.361a2.7,2.7,0,0,1,3.408-.019l5.4,4.464Z" transform="translate(14 -11)"/></g></svg>