<svg xmlns="http://www.w3.org/2000/svg" width="21.698" height="18.961" viewBox="0 0 21.698 18.961"><g transform="translate(-12.651 0.35)"><path d="M23.5,30.261a1.807,1.807,0,0,1-1.086-.361c-2.154-1.6-7.3-5.576-8.6-7.986A6.89,6.89,0,0,1,16.075,12.9a5.9,5.9,0,0,1,3.111-.9A5.97,5.97,0,0,1,23.5,13.857,5.97,5.97,0,0,1,27.813,12a5.9,5.9,0,0,1,3.111.9,6.9,6.9,0,0,1,2.262,9.015c-1.292,2.41-6.441,6.387-8.6,7.986A1.83,1.83,0,0,1,23.5,30.261ZM19.186,13.336a4.552,4.552,0,0,0-2.4.695A5.539,5.539,0,0,0,15,21.282c1.2,2.236,6.589,6.342,8.211,7.545a.491.491,0,0,0,.577,0C25.408,27.62,30.8,23.513,32,21.282a5.538,5.538,0,0,0-1.788-7.251,4.525,4.525,0,0,0-2.4-.695,4.72,4.72,0,0,0-3.777,1.951l-.536.721-.536-.721A4.713,4.713,0,0,0,19.186,13.336Z" transform="translate(0 -12)"/><path d="M23.5,30.611a2.155,2.155,0,0,1-1.3-.43c-2.173-1.613-7.371-5.631-8.7-8.1A7.244,7.244,0,0,1,15.89,12.6a6.236,6.236,0,0,1,7.609.764,6.236,6.236,0,0,1,7.609-.764,7.251,7.251,0,0,1,2.386,9.477c-1.325,2.471-6.523,6.489-8.7,8.1A2.183,2.183,0,0,1,23.5,30.611ZM19.186,12.35a5.554,5.554,0,0,0-2.927.847,6.534,6.534,0,0,0-2.133,8.552c1.258,2.346,6.36,6.285,8.5,7.87a1.46,1.46,0,0,0,.878.292,1.486,1.486,0,0,0,.884-.293c2.134-1.584,7.236-5.523,8.494-7.869A6.541,6.541,0,0,0,30.74,13.2a5.554,5.554,0,0,0-2.926-.847,5.615,5.615,0,0,0-4.062,1.75l-.252.261-.252-.261A5.615,5.615,0,0,0,19.186,12.35ZM23.5,29.27a.831.831,0,0,1-.5-.161c-1.638-1.214-7.075-5.351-8.313-7.662A5.894,5.894,0,0,1,16.6,13.734a4.91,4.91,0,0,1,2.585-.748,5.065,5.065,0,0,1,4.057,2.091l.257.345.256-.344a5.067,5.067,0,0,1,4.058-2.092,4.879,4.879,0,0,1,2.581.748,5.889,5.889,0,0,1,1.911,7.713c-1.192,2.221-6.209,6.1-8.311,7.66A.833.833,0,0,1,23.5,29.27ZM19.186,13.686a4.21,4.21,0,0,0-2.216.642,5.185,5.185,0,0,0-1.664,6.788c.929,1.734,4.8,4.975,8.111,7.429a.147.147,0,0,0,.161,0c1.609-1.2,6.953-5.273,8.11-7.428a5.179,5.179,0,0,0-1.664-6.788,4.18,4.18,0,0,0-2.211-.642,4.372,4.372,0,0,0-3.5,1.811L23.5,16.6l-.817-1.1A4.371,4.371,0,0,0,19.186,13.686Z" transform="translate(0 -12)"/></g></svg>