<svg xmlns="http://www.w3.org/2000/svg" width="19" height="18.96" viewBox="0 0 19 18.96"><g transform="translate(-51.654 0.35)"><path d="M71.3,29.816,70.235,25.86a.945.945,0,0,1,.074-.67,9.232,9.232,0,0,0,.665-6.387,8.942,8.942,0,0,0-6.339-6.474,9.943,9.943,0,0,0-2.5-.33,9.151,9.151,0,0,0-8.817,11.565,9.965,9.965,0,0,0,6.569,6.421,9.457,9.457,0,0,0,2.248.274,9.1,9.1,0,0,0,4.33-1.1.973.973,0,0,1,.461-.122.868.868,0,0,1,.235.031l3.852,1.03a.336.336,0,0,0,.061.009A.233.233,0,0,0,71.3,29.816Zm-2.278-3.63.6,2.239-2.135-.569a2.2,2.2,0,0,0-.561-.074,2.257,2.257,0,0,0-1.065.274A7.765,7.765,0,0,1,62.131,29a8.329,8.329,0,0,1-1.952-.239,8.712,8.712,0,0,1-5.643-5.513,7.977,7.977,0,0,1,1.369-6.93,7.821,7.821,0,0,1,6.226-3.056,8.4,8.4,0,0,1,2.182.291,7.641,7.641,0,0,1,5.439,5.556,7.934,7.934,0,0,1-.57,5.521A2.2,2.2,0,0,0,69.018,26.186Z" transform="translate(-1 -12)" fill-rule="evenodd"/><path d="M62.131,30.61a9.837,9.837,0,0,1-2.331-.284,9.522,9.522,0,0,1-4.233-2.5,9.347,9.347,0,0,1-2.592-4.172,9.572,9.572,0,0,1,1.656-8.322,9.424,9.424,0,0,1,7.5-3.681,10.314,10.314,0,0,1,2.592.342,9.292,9.292,0,0,1,6.59,6.728,9.543,9.543,0,0,1-.692,6.627.593.593,0,0,0-.05.421l1.061,3.958a.583.583,0,0,1-.564.732.642.642,0,0,1-.13-.016l-.021,0-3.852-1.03a.526.526,0,0,0-.144-.019.626.626,0,0,0-.293.079A9.387,9.387,0,0,1,62.131,30.61Zm0-18.26a8.729,8.729,0,0,0-6.947,3.41,8.877,8.877,0,0,0-1.532,7.718,9.6,9.6,0,0,0,6.313,6.169,9.137,9.137,0,0,0,2.165.264A8.693,8.693,0,0,0,66.3,28.852a1.317,1.317,0,0,1,.627-.164,1.209,1.209,0,0,1,.329.043l3.654.977L69.9,25.951a1.29,1.29,0,0,1,.1-.917,8.851,8.851,0,0,0,.638-6.147,8.546,8.546,0,0,0-6.089-6.219A9.61,9.61,0,0,0,62.131,12.35Zm0,17A8.681,8.681,0,0,1,60.1,29.1a8.375,8.375,0,0,1-3.654-2.181A8.071,8.071,0,0,1,54.2,23.335,8.324,8.324,0,0,1,55.629,16.1a8.169,8.169,0,0,1,6.5-3.192,8.745,8.745,0,0,1,2.274.3,7.991,7.991,0,0,1,5.687,5.81,8.281,8.281,0,0,1-.6,5.762,1.852,1.852,0,0,0-.14,1.309l.757,2.824-2.72-.726a1.86,1.86,0,0,0-.471-.062,1.9,1.9,0,0,0-.9.232A8.115,8.115,0,0,1,62.131,29.349Zm0-15.738a7.474,7.474,0,0,0-5.949,2.921,7.629,7.629,0,0,0-1.307,6.628,8.315,8.315,0,0,0,5.387,5.26,7.979,7.979,0,0,0,1.869.229,7.422,7.422,0,0,0,3.56-.9,2.6,2.6,0,0,1,1.231-.316,2.564,2.564,0,0,1,.65.085l1.551.414-.443-1.654a2.551,2.551,0,0,1,.19-1.8,7.59,7.59,0,0,0,.543-5.281,7.291,7.291,0,0,0-5.189-5.3A8.047,8.047,0,0,0,62.131,13.611Z" transform="translate(-1 -12)"/></g></svg>