<svg xmlns="http://www.w3.org/2000/svg" width="21.676" height="18.96" viewBox="0 0 21.676 18.96"><g transform="translate(-87.954 0.35)"><path d="M107.856,12.445a.9.9,0,0,0-.785-.445l-19.157.014a.916.916,0,0,0-.8,1.359,1.015,1.015,0,0,0,.195.232l7.382,6.366,1.8,9.563a.877.877,0,0,0,.738.715.923.923,0,0,0,.942-.445l9.679-16.453A.891.891,0,0,0,107.856,12.445Zm-18.639.946h15.6l-9.391,5.359Zm8.407,14.592-1.513-8.036,9.4-5.364Z" transform="translate(1.304 -12)" fill-rule="evenodd"/><path d="M107.071,11.65h0a1.244,1.244,0,0,1,1.081,1.878L98.474,29.98a1.271,1.271,0,0,1-1.3.614,1.226,1.226,0,0,1-1.026-1l-1.777-9.441L87.082,13.87a1.37,1.37,0,0,1-.265-.315l-.005-.009a1.266,1.266,0,0,1,1.1-1.883ZM97.377,29.91a.571.571,0,0,0,.494-.285l9.678-16.452a.539.539,0,0,0,0-.551.55.55,0,0,0-.482-.271l-19.157.014a.559.559,0,0,0-.526.367.552.552,0,0,0,.03.464.664.664,0,0,0,.125.148l7.472,6.443,1.823,9.683a.528.528,0,0,0,.449.434A.578.578,0,0,0,97.377,29.91Zm-9.1-16.868h17.859L95.384,19.178Zm15.22.7H90.159l5.308,4.582Zm2.989-.113L97.453,28.965l-1.731-9.2ZM97.8,27l6.752-11.463L96.5,20.128Z" transform="translate(1.304 -12)"/></g></svg>