<svg id="icon-mail" xmlns="http://www.w3.org/2000/svg" width="34.821" height="18" viewBox="0 0 34.821 18">
  <path id="Path_4205" data-name="Path 4205" d="M159.464,8.058A.542.542,0,0,0,160,7.509V.549c0-.006,0-.013,0-.019s0-.013,0-.019a.56.56,0,0,0-.03-.148l0-.007,0,0a.541.541,0,0,0-.032-.07l0-.008a.548.548,0,0,0-.037-.056l-.008-.011a.536.536,0,0,0-.047-.053l-.011-.01a.53.53,0,0,0-.05-.042l-.006,0A.527.527,0,0,0,159.7.059l-.012-.006a.518.518,0,0,0-.138-.045l-.016,0A.526.526,0,0,0,159.464,0H133.8a.527.527,0,0,0-.074.006l-.016,0a.515.515,0,0,0-.139.045l-.012.006A.516.516,0,0,0,133.5.1l-.006,0a.517.517,0,0,0-.05.042l-.011.01a.559.559,0,0,0-.047.053l-.008.011a.553.553,0,0,0-.037.056l0,.008a.555.555,0,0,0-.031.069l0,.005,0,.007a.56.56,0,0,0-.03.148c0,.006,0,.013,0,.019s0,.013,0,.019V3.774a.534.534,0,1,0,1.068,0V1.76l9.434,8.49-9.434,6.2V6.191a.534.534,0,1,0-1.068,0v11.22s0,.01,0,.014a.562.562,0,0,0,.021.179.536.536,0,0,0,.513.4h25.663a.536.536,0,0,0,.513-.4.566.566,0,0,0,.021-.179s0-.01,0-.014V9.926a.534.534,0,1,0-1.068,0v6.522l-9.434-6.2,9.434-8.49V7.509a.542.542,0,0,0,.534.549m-1.889,8.8H135.69L144.606,11l.018.016a2.861,2.861,0,0,0,4.017,0l.018-.016Zm-9.638-6.669a1.839,1.839,0,0,1-2.61,0L145,9.9l0,0-9.777-8.8h22.82Z" transform="translate(-125.177)" fill="#009f9f"/>
  <path id="Path_4206" data-name="Path 4206" d="M6.55,74.686H.46a.558.558,0,0,0,0,1.1H6.55a.558.558,0,0,0,0-1.1" transform="translate(-0.001 -69.265)" fill="#009f9f"/>
  <path id="Path_4207" data-name="Path 4207" d="M37.047,119.128H32.927a.558.558,0,0,0,0,1.1h4.119a.558.558,0,0,0,0-1.1" transform="translate(-30.497 -110.479)" fill="#009f9f"/>
  <path id="Path_4208" data-name="Path 4208" d="M68.916,158.121h-2.06a.558.558,0,0,0,0,1.1h2.06a.558.558,0,0,0,0-1.1" transform="translate(-62.366 -146.643)" fill="#009f9f"/>
</svg>
