<svg xmlns="http://www.w3.org/2000/svg" xmlns:xlink="http://www.w3.org/1999/xlink" width="56" height="56" viewBox="0 0 56 56">
  <defs>
    <clipPath id="clip-path">
      <rect id="Rectangle_1595" data-name="Rectangle 1595" width="56" height="56" transform="translate(-6.781 -4.544)" fill="none"/>
    </clipPath>
  </defs>
  <g id="produits" transform="translate(6 4.544)">
    <g id="Group_5768" data-name="Group 5768" transform="translate(0.781 0)" clip-path="url(#clip-path)">
      <path id="Path_4359" data-name="Path 4359" d="M0,21.938a.753.753,0,0,0,.007.1L2.857,43.419a2.276,2.276,0,0,0,2.249,1.969h31.96a2.272,2.272,0,0,0,2.269-2.269V40.143L42.356,17.5a.039.039,0,0,1,0-.009c0-.015,0-.031,0-.046s0-.023,0-.034V14.373a.757.757,0,0,0-.756-.756H26.477a.757.757,0,0,0-.756.756v3.035c0,.011,0,.023,0,.034s0,.031,0,.046a.039.039,0,0,0,0,.009l1.395,10.46c-1.521-.116-1.991-.527-2.129-.72a.566.566,0,0,1-.081-.484.722.722,0,0,0-.057-.7.754.754,0,0,0-.647-.332,8.522,8.522,0,0,0-3.621.729l.588-4.411a.753.753,0,0,0,.007-.1,9.845,9.845,0,0,0-5.367-8.759.755.755,0,0,0,.061-.443L15.119,8.2a.756.756,0,0,0-.746-.632h-.756V4.539h5.3a.757.757,0,0,0,.756-.756V.756A.757.757,0,0,0,18.912,0l-.05,0L7.514.758a.756.756,0,0,0-.667.516L6.091,3.543a.757.757,0,0,0,.718,1h.756V7.565H6.808a.756.756,0,0,0-.746.632l-.756,4.539a.755.755,0,0,0,.061.443A9.845,9.845,0,0,0,0,21.938M31.015,43.875H12.762a.659.659,0,0,1-.659-.659v-7.76a.659.659,0,0,1,.659-.659H31.113a.659.659,0,0,1,.659.659v7.76a.659.659,0,0,1-.659.659Zm-16.642-12.1H29.5v1.513H14.373ZM37.824,43.119a.757.757,0,0,1-.756.756H33.182a2.167,2.167,0,0,0,.1-.659V40.85h4.539Zm.095-3.782H33.285v-3.88a2.174,2.174,0,0,0-2.172-2.172h-.1V31.015c0-.021,0-.042,0-.063,0,0,0-.008,0-.013v0a3.969,3.969,0,0,0-.442-1.417,2.8,2.8,0,0,0-1.908-1.46l-1.32-9.9h13.4ZM27.233,15.129H40.85v1.513H27.233ZM23.727,28.067c.64.952,2.074,1.435,4.263,1.435a1.3,1.3,0,0,1,1.231.705l.028.051H17.874c.323-.247.63-.507.935-.765a7.534,7.534,0,0,1,4.6-2.227,2.029,2.029,0,0,0,.322.8M8.122,2.234l10.034-.669V3.026H7.858Zm.956,2.3H12.1V7.565H9.078ZM6.945,12.1l.5-3.026h6.283l.5,3.026Zm2.889,1.513h1.513a8.331,8.331,0,0,1,8.321,8.272l-.742,5.562c-.389.291-.748.594-1.1.888-1.217,1.03-2.269,1.92-4.215,1.92a.757.757,0,0,0-.756.756v2.269h-.1a2.174,2.174,0,0,0-2.172,2.172v7.76a2.167,2.167,0,0,0,.1.659H5.107a.759.759,0,0,1-.75-.657L1.513,21.889a8.331,8.331,0,0,1,8.321-8.272" transform="translate(0.038 0.005)"/>
      <path id="Path_4360" data-name="Path 4360" d="M203.026,384a3.026,3.026,0,1,0,3.026,3.026A3.026,3.026,0,0,0,203.026,384m0,4.539a1.513,1.513,0,1,1,1.513-1.513,1.513,1.513,0,0,1-1.513,1.513" transform="translate(-181.05 -347.684)"/>
      <path id="Path_4361" data-name="Path 4361" d="M323.782,228.539c2.156,0,3.782-.976,3.782-2.269S325.938,224,323.782,224s-3.782.976-3.782,2.269,1.626,2.269,3.782,2.269m0-3.026c1.465,0,2.269.568,2.269.756s-.8.756-2.269.756-2.269-.568-2.269-.756.8-.756,2.269-.756" transform="translate(-289.703 -202.814)"/>
      <path id="Path_4362" data-name="Path 4362" d="M56.756,206.052h9.078a.757.757,0,0,0,.756-.756v-4.539a.757.757,0,0,0-.756-.756H56.756a.757.757,0,0,0-.756.756V205.3a.757.757,0,0,0,.756.756m.756-4.539h7.565v3.026H57.513Z" transform="translate(-50.667 -181.083)"/>
    </g>
  </g>
</svg>
