<svg id="icon-restaurant" xmlns="http://www.w3.org/2000/svg" width="29.573" height="29.573" viewBox="0 0 29.573 29.573">
  <path id="Path_4332" data-name="Path 4332" d="M56.181,14.787A12.2,12.2,0,0,0,44.9,3.511V1.74h1.74V0H41.425V1.74h1.74V3.511A12.2,12.2,0,0,0,31.889,14.787H30.118v1.74H57.952v-1.74ZM44.035,5.219a10.451,10.451,0,0,1,10.4,9.568h-20.8a10.451,10.451,0,0,1,10.4-9.568" transform="translate(-28.378)" fill="#3b3b3b"/>
  <path id="Path_4333" data-name="Path 4333" d="M26.264,316.708l-.04.008L17.2,319.464a2.927,2.927,0,0,0-2.073-1.8L9.789,316.3a3.186,3.186,0,0,0-1.672.091l-2.438.8a15.182,15.182,0,0,1-4.81.781H0V325.8H4.377a26.576,26.576,0,0,1,4.954.467l6.13,1.166A3.184,3.184,0,0,0,17.7,327.2l10.35-5.324a2.758,2.758,0,0,0-1.789-5.168Zm1.006,3.614-10.349,5.324a1.446,1.446,0,0,1-1.032.1l-.035-.01-6.2-1.179a28.322,28.322,0,0,0-5.279-.5H1.74v-4.371a16.923,16.923,0,0,0,4.49-.848l2.433-.8A1.448,1.448,0,0,1,9.41,318l5.314,1.358a1.2,1.2,0,0,1,.929,1.272,1.176,1.176,0,0,1-1.536,1.061L9.779,320.6l-.422,1.688,4.338,1.085a2.912,2.912,0,0,0,3.615-2.127l9.336-2.843a1.019,1.019,0,0,1,.624,1.916Z" transform="translate(0 -297.964)" fill="#3b3b3b"/>
</svg>
