<svg xmlns="http://www.w3.org/2000/svg" width="24" height="24" viewBox="0 0 24 24">
  <g id="social-instagram" style="mix-blend-mode: difference;isolation: isolate">
    <path id="Path_458" data-name="Path 458" d="M12.012,2.167c3.207,0,3.582,0,4.854.068a6.5,6.5,0,0,1,2.224.411,3.564,3.564,0,0,1,1.382.9,3.684,3.684,0,0,1,.9,1.369,6.528,6.528,0,0,1,.412,2.229c.061,1.265.074,1.645.074,4.844s0,3.579-.074,4.85a6.448,6.448,0,0,1-.412,2.223,3.561,3.561,0,0,1-.9,1.381,3.687,3.687,0,0,1-1.382.9,6.5,6.5,0,0,1-2.224.411c-1.272.061-1.653.074-4.854.074s-3.582,0-4.848-.074a6.541,6.541,0,0,1-2.248-.4,3.564,3.564,0,0,1-1.384-.9,3.684,3.684,0,0,1-.9-1.381,6.485,6.485,0,0,1-.412-2.223C2.169,15.576,2.157,15.2,2.157,12s0-3.579.068-4.844a6.528,6.528,0,0,1,.43-2.241,3.561,3.561,0,0,1,.9-1.369,3.687,3.687,0,0,1,1.364-.9,6.542,6.542,0,0,1,2.23-.411c1.26-.061,1.634-.068,4.848-.068m0-2.167C8.731,0,8.307,0,7.041.074a8.762,8.762,0,0,0-2.894.54,5.942,5.942,0,0,0-2.138,1.4A5.863,5.863,0,0,0,.614,4.144a8.59,8.59,0,0,0-.559,2.91C0,8.338,0,8.743,0,12s0,3.684.068,4.949a8.712,8.712,0,0,0,.547,2.91A5.734,5.734,0,0,0,2,21.992,5.967,5.967,0,0,0,4.129,23.38a8.78,8.78,0,0,0,2.912.553c1.284.055,1.69.068,4.952.068s3.687,0,4.952-.068a8.9,8.9,0,0,0,2.912-.553,5.832,5.832,0,0,0,2.132-1.388,5.906,5.906,0,0,0,1.389-2.13,8.731,8.731,0,0,0,.553-2.91C23.988,15.675,24,15.269,24,12s0-3.684-.068-4.949a8.921,8.921,0,0,0-.553-2.91,5.881,5.881,0,0,0-1.389-2.13,5.8,5.8,0,0,0-2.114-1.4,8.608,8.608,0,0,0-2.912-.54C15.68,0,15.275,0,12.012,0" fill="#fff"/>
    <path id="Path_459" data-name="Path 459" d="M15.62,9.51a6.061,6.061,0,1,0,6.07,6.061A6.066,6.066,0,0,0,15.62,9.51m0,10.031a3.943,3.943,0,1,1,2.8-1.154,3.949,3.949,0,0,1-2.8,1.154" transform="translate(-3.608 -3.593)" fill="#fff"/>
    <path id="Path_460" data-name="Path 460" d="M30.544,8.216A1.462,1.462,0,1,1,29.1,6.76a1.462,1.462,0,0,1,1.444,1.456" transform="translate(-10.679 -2.617)" fill="#fff"/>
  </g>
</svg>
