<svg xmlns="http://www.w3.org/2000/svg" width="21.086" height="24" viewBox="0 0 21.086 24">
  <path id="social-tiktok" d="M21.074,6.009a6.047,6.047,0,0,1-3.654-1.221,6.062,6.062,0,0,1-2.3-3.654A6.117,6.117,0,0,1,15.005,0H11.086V10.708l0,5.865a3.553,3.553,0,1,1-2.437-3.365V9.228a7.74,7.74,0,0,0-1.13-.083A7.515,7.515,0,0,0,1.869,11.67,7.364,7.364,0,0,0,2.2,21.824,7.519,7.519,0,0,0,7.515,24a7.74,7.74,0,0,0,1.13-.083,7.49,7.49,0,0,0,4.184-2.093,7.336,7.336,0,0,0,2.2-5.221l-.02-8.758a9.949,9.949,0,0,0,2.2,1.284,9.907,9.907,0,0,0,3.875.781v-3.9h-.011" transform="translate(0)" fill="#fff" style="mix-blend-mode: difference;isolation: isolate"/>
</svg>
