<svg xmlns="http://www.w3.org/2000/svg" width="30.13" height="30" viewBox="0 0 30.13 30">
  <g id="Group_5853" data-name="Group 5853" transform="translate(-880.935 -3515.461)">
    <rect id="Rectangle_1642" data-name="Rectangle 1642" width="30" height="30" transform="translate(881 3515.461)" fill="#fff" opacity="0"/>
    <g id="icon-spa" transform="translate(882.061 3518.432)">
      <path id="Path_2286" data-name="Path 2286" d="M198.163,423.981a7.332,7.332,0,0,1-2.788-2.9c-2.408-4.056.505-14.7.505-14.7s.922.263,2.283.723" transform="translate(-194.421 -401.313)" fill="none" stroke="#3b3b3b" stroke-linecap="square" stroke-miterlimit="10" stroke-width="2"/>
      <path id="Path_2287" data-name="Path 2287" d="M203.5,407.1c1.358-.46,2.28-.723,2.28-.723s2.916,10.644.508,14.7a7.369,7.369,0,0,1-2.788,2.9" transform="translate(-179.366 -401.313)" fill="none" stroke="#3b3b3b" stroke-linecap="square" stroke-miterlimit="10" stroke-width="2"/>
      <path id="Path_2288" data-name="Path 2288" d="M196.332,419.32c0-5.618,8.872-14.846,8.872-14.846s8.869,9.228,8.869,14.846a8.877,8.877,0,0,1-17.741.672C196.324,419.767,196.324,419.544,196.332,419.32Z" transform="translate(-191.264 -404.474)" fill="none" stroke="#3b3b3b" stroke-linecap="square" stroke-miterlimit="10" stroke-width="2"/>
    </g>
  </g>
</svg>
