<svg xmlns="http://www.w3.org/2000/svg" width="40" height="40" viewBox="0 0 40 40"><rect width="40" height="40" rx="8" fill="#fff"/><g transform="translate(10.018 8.839)"><g transform="translate(-0.018 -0.004)"><path d="M4.456,144.989l-.7,2.613-2.558.054a10.071,10.071,0,0,1-.074-9.388h0l2.277.418,1,2.264a6,6,0,0,0,.056,4.04" transform="translate(0.018 -132.834)" fill="#fbbb00"/><path d="M271.285,208.176a10.05,10.05,0,0,1-3.584,9.718h0l-2.869-.146-.406-2.534a5.992,5.992,0,0,0,2.578-3.06h-5.376v-3.977h9.657Z" transform="translate(-251.335 -199.997)" fill="#518ef8"/><path d="M45.658,315.151h0a10.057,10.057,0,0,1-15.15-3.076l3.258-2.667a5.979,5.979,0,0,0,8.616,3.061Z" transform="translate(-29.293 -297.254)" fill="#28b446"/><path d="M43.971,2.315,40.714,4.981A5.979,5.979,0,0,0,31.9,8.111L28.625,5.43h0A10.056,10.056,0,0,1,43.971,2.315" transform="translate(-27.482 0.004)" fill="#f14336"/></g></g></svg>