<svg xmlns="http://www.w3.org/2000/svg" width="40" height="40" viewBox="0 0 40 40"><rect width="40" height="40" rx="8" fill="#34e0a1"/><g transform="translate(8.484 10.818)"><path d="M21.148,4.307l1.882-2.048H18.857a13.042,13.042,0,0,0-14.672,0H0L1.882,4.307A5.754,5.754,0,1,0,9.67,12.779l1.844,2.008,1.844-2.006a5.756,5.756,0,1,0,7.791-8.474ZM5.76,12.453A3.894,3.894,0,1,1,9.654,8.559,3.893,3.893,0,0,1,5.76,12.453m5.755-4.007a6.353,6.353,0,0,0-4.322-5.7,11.234,11.234,0,0,1,8.643,0,6.355,6.355,0,0,0-4.321,5.7m5.753,4.007a3.894,3.894,0,1,1,3.894-3.894,3.893,3.893,0,0,1-3.894,3.894m0-5.936A2.041,2.041,0,1,0,19.31,8.558a2.04,2.04,0,0,0-2.041-2.041M7.8,8.559A2.041,2.041,0,1,1,5.76,6.518,2.04,2.04,0,0,1,7.8,8.559" transform="translate(0 0)"/></g></svg>