<svg xmlns="http://www.w3.org/2000/svg" width="40" height="40" viewBox="0 0 40 40"><rect width="40" height="40" rx="8" fill="#003580"/><g transform="translate(12.37 11.403)"><path d="M93.082,17.773a2.282,2.282,0,0,0,1.215-.342,2.093,2.093,0,0,0,.807-.92,1.935,1.935,0,0,0,.127-1.186,2.013,2.013,0,0,0-.6-1.053,2.225,2.225,0,0,0-1.117-.564,2.3,2.3,0,0,0-1.262.116,2.166,2.166,0,0,0-.981.756,1.961,1.961,0,0,0,.269,2.59,2.253,2.253,0,0,0,1.538.6m-4.68-8.9-.548-.284.476-.373a4.16,4.16,0,0,0,1.127-1.453A3.91,3.91,0,0,0,89.823,5c0-2.687-2.215-4.419-5.628-4.419h-4.35a1.956,1.956,0,0,0-1.29.537,1.739,1.739,0,0,0-.544,1.224V17.567h6.255c3.8,0,6.263-1.948,6.263-4.971a3.96,3.96,0,0,0-.523-2.136,4.277,4.277,0,0,0-1.6-1.589M81.48,4.565a1.053,1.053,0,0,1,1.135-1.209H84.2a2.074,2.074,0,0,1,.845.1,1.972,1.972,0,0,1,.718.431,1.835,1.835,0,0,1,.456.678,1.738,1.738,0,0,1,.107.795,1.792,1.792,0,0,1-.094.811,1.885,1.885,0,0,1-.446.7,2.036,2.036,0,0,1-.716.46,2.152,2.152,0,0,1-.855.135H81.48Zm3.04,10.121H81.48V11.268c0-.746.31-1.112.968-1.2H84.52a2.528,2.528,0,0,1,1.649.721,2.215,2.215,0,0,1,0,3.178,2.528,2.528,0,0,1-1.649.721" transform="translate(-78.011 -0.579)" fill="#fff"/></g></svg>