<svg id="icon-translate" xmlns="http://www.w3.org/2000/svg" width="24" height="24" viewBox="0 0 24 24">
  <rect id="Rectangle_1629" data-name="Rectangle 1629" width="24" height="24" fill="#fff" opacity="0"/>
  <g id="Group_5664" data-name="Group 5664" transform="translate(1.273 1.074)">
    <g id="Group_5665" data-name="Group 5665">
      <path id="Path_4251" data-name="Path 4251" d="M18.87,8.847H12.013V1.99A1.99,1.99,0,0,0,10.023,0H1.972A1.981,1.981,0,0,0,0,1.99H0v8.042A1.972,1.972,0,0,0,1.972,12H8.847V18.88a1.972,1.972,0,0,0,1.972,1.972h8.042a1.981,1.981,0,0,0,1.99-1.972h0V10.838a1.99,1.99,0,0,0-1.981-1.99m-10.023,2h0v.262L1.972,11.1A1.067,1.067,0,0,1,.9,10.033V1.99A1.077,1.077,0,0,1,1.972.9h8.042A1.086,1.086,0,0,1,11.1,1.99V8.856h-.28a1.981,1.981,0,0,0-1.972,1.99M19.956,18.88a1.076,1.076,0,0,1-1.085,1.067H10.828A1.067,1.067,0,0,1,9.761,18.88V10.838a1.076,1.076,0,0,1,1.067-1.086H18.87a1.086,1.086,0,0,1,1.086,1.086Z" transform="translate(0)" fill="#3b3b3b"/>
      <path id="Path_4252" data-name="Path 4252" d="M293.277,276.147l-2.244-5.962a.47.47,0,0,0-.85,0l-2.189,5.953a.454.454,0,1,0,.85.317l.534-1.429h2.515l.534,1.429a.452.452,0,0,0,.85-.308m-3.591-2.017.9-2.488.9,2.488Z" transform="translate(-275.754 -258.47)" fill="#3b3b3b"/>
      <path id="Path_4253" data-name="Path 4253" d="M69.139,59.137a4.053,4.053,0,0,1-2.153-.624,4.976,4.976,0,0,0,1.393-3.022h.76a.452.452,0,0,0,0-.9H66.723V52.931a.452.452,0,1,0-.9,0v1.656H63.385a.452.452,0,0,0,0,.9h.769a4.985,4.985,0,0,0,1.393,3.022,4.08,4.08,0,0,1-2.153.624.452.452,0,1,0,0,.9,4.994,4.994,0,0,0,2.877-.9,4.967,4.967,0,0,0,2.868.9.452.452,0,1,0,0-.9m-4.053-3.646h2.37a4.071,4.071,0,0,1-1.185,2.479,4.08,4.08,0,0,1-1.185-2.479" transform="translate(-60.264 -50.254)" fill="#3b3b3b"/>
    </g>
  </g>
</svg>
