<svg xmlns="http://www.w3.org/2000/svg" xmlns:xlink="http://www.w3.org/1999/xlink" width="56" height="56" viewBox="0 0 56 56">
  <defs>
    <clipPath id="clip-path">
      <rect id="Rectangle_1592" data-name="Rectangle 1592" width="56" height="56" transform="translate(-3.647 -0.767)" fill="none"/>
    </clipPath>
  </defs>
  <g id="vue-mer" transform="translate(3 0.766)">
    <g id="Group_5762" data-name="Group 5762" transform="translate(0.648 0)" clip-path="url(#clip-path)">
      <path id="Path_4339" data-name="Path 4339" d="M216.87,156.325a.869.869,0,0,0-.87.869h0v2.783a.87.87,0,1,0,1.739,0v-2.783a.87.87,0,0,0-.869-.87Z" transform="translate(-192.518 -139.33)"/>
      <path id="Path_4340" data-name="Path 4340" d="M131.754,159.139a.87.87,0,0,0,1.607-.666l-1.91-4.612a.87.87,0,0,0-1.607.666Z" transform="translate(-115.675 -136.669)"/>
      <path id="Path_4341" data-name="Path 4341" d="M73.747,220.1a.875.875,0,0,0,.615-1.485l-1.97-1.97a.87.87,0,1,0-1.23,1.23l1.97,1.97A.867.867,0,0,0,73.747,220.1Z" transform="translate(-63.199 -192.864)"/>
      <path id="Path_4342" data-name="Path 4342" d="M8.377,276.929l4.613,1.911a.87.87,0,0,0,.666-1.607l-4.613-1.911a.87.87,0,0,0-.666,1.607" transform="translate(-7.002 -245.337)"/>
      <path id="Path_4343" data-name="Path 4343" d="M47.835,354.715c-3.182-.059-3.217-1.922-6.706-1.879-3.493-.043-3.52,1.82-6.706,1.879-3.184-.058-3.216-1.922-6.708-1.879-3.494-.043-3.523,1.82-6.71,1.879-3.187-.058-3.216-1.922-6.709-1.879-3.494-.043-3.526,1.82-6.712,1.879-3.191-.058-3.216-1.922-6.713-1.879a.87.87,0,1,0,0,1.739c3.186.058,3.219,1.922,6.713,1.879,3.5.043,3.523-1.821,6.712-1.879,3.184.059,3.217,1.922,6.709,1.879a6.815,6.815,0,0,0,3.779-1.05,5.594,5.594,0,0,1,5.86,0,7.432,7.432,0,0,0,7.557,0,5.587,5.587,0,0,1,5.855,0,6.816,6.816,0,0,0,3.779,1.05.87.87,0,1,0,0-1.739Z" transform="translate(0 -314.477)"/>
      <path id="Path_4344" data-name="Path 4344" d="M67.454,415.893c-2.8-.061-2.832-1.7-5.928-1.66-3.1-.043-3.129,1.6-5.928,1.66-2.8-.061-2.832-1.7-5.929-1.66-3.1-.043-3.132,1.6-5.932,1.66-2.8-.061-2.831-1.7-5.929-1.66-3.1-.043-3.134,1.6-5.934,1.66-2.8-.062-2.831-1.7-5.934-1.66a.87.87,0,1,0,0,1.739,4.457,4.457,0,0,1,2.542.719,6.689,6.689,0,0,0,6.784,0,4.847,4.847,0,0,1,5.082,0,6.677,6.677,0,0,0,6.78,0,4.846,4.846,0,0,1,5.081,0,6.685,6.685,0,0,0,6.778,0,4.453,4.453,0,0,1,2.54-.719c2.8.062,2.829,1.7,5.927,1.66a.87.87,0,1,0,0-1.739Z" transform="translate(-22.345 -369.199)"/>
      <path id="Path_4345" data-name="Path 4345" d="M381.926,278.312a.871.871,0,0,0,1.136.471l4.613-1.911a.87.87,0,1,0-.664-1.608h0l-4.613,1.911A.87.87,0,0,0,381.926,278.312Z" transform="translate(-340.345 -245.28)"/>
      <path id="Path_4346" data-name="Path 4346" d="M345.2,216.743l-1.97,1.97a.87.87,0,1,0,1.23,1.23l1.97-1.97a.87.87,0,0,0-1.23-1.23Z" transform="translate(-305.691 -192.964)"/>
      <path id="Path_4347" data-name="Path 4347" d="M285.24,159.48a.871.871,0,0,0,1.136-.471l1.91-4.612a.87.87,0,1,0-1.607-.666l-1.91,4.612A.87.87,0,0,0,285.24,159.48Z" transform="translate(-253.752 -136.54)"/>
      <path id="Path_4348" data-name="Path 4348" d="M83.6,238.581a.871.871,0,0,0,1.043-.652c3.436-14.361,23.806-14.355,27.238,0a.87.87,0,0,0,1.7-.391c-3.863-16.15-26.769-16.145-30.629,0a.87.87,0,0,0,.652,1.043" transform="translate(-73.912 -200.92)"/>
      <path id="Path_4349" data-name="Path 4349" d="M163.584,2.759A6.507,6.507,0,0,1,168.7,5.067a.875.875,0,0,0,1.489-.426c0-.024.517-2.411,2.184-2.948a.87.87,0,0,0-.533-1.655,5,5,0,0,0-2.9,2.881,7.913,7.913,0,0,0-5.576-1.886.87.87,0,0,0,.216,1.726" transform="translate(-144.943 0)"/>
      <path id="Path_4350" data-name="Path 4350" d="M322.491,76.611a6.478,6.478,0,0,1,5.125,2.307.877.877,0,0,0,1.488-.424c.005-.024.507-2.41,2.185-2.951a.87.87,0,0,0-.533-1.655,5,5,0,0,0-2.9,2.881,7.913,7.913,0,0,0-5.576-1.886.87.87,0,0,0,.21,1.727" transform="translate(-286.58 -65.822)"/>
      <path id="Path_4351" data-name="Path 4351" d="M16.9,86.127c1.677.54,2.179,2.926,2.184,2.948a.875.875,0,0,0,1.489.426A6.474,6.474,0,0,1,25.7,87.194a.87.87,0,0,0,.211-1.727,7.916,7.916,0,0,0-5.576,1.885,5,5,0,0,0-2.9-2.881.87.87,0,0,0-.533,1.655Z" transform="translate(-14.525 -75.251)"/>
    </g>
  </g>
</svg>
