<?xml version="1.0" encoding="utf-8"?>
<!-- Generator: Adobe Illustrator 27.2.0, SVG Export Plug-In . SVG Version: 6.00 Build 0)  -->
<svg version="1.1" id="Group_1351" xmlns="http://www.w3.org/2000/svg" xmlns:xlink="http://www.w3.org/1999/xlink" x="0px" y="0px"
	 viewBox="0 0 28 28" style="enable-background:new 0 0 28 28;" xml:space="preserve">
<style type="text/css">
	.st0{fill:#444444;}
</style>
<path id="Path_2555" class="st0" d="M17.2,8.3"/>
<path id="Path_2556" class="st0" d="M6.3,10.2l-2,0.3l1.4,1.4l-0.3,2l1.8-0.9L9,13.8l-0.3-2l1.4-1.4l-2-0.3L7.2,8.4L6.3,10.2z"/>
<path id="Path_2557" class="st0" d="M13.2,10.2l-2,0.3l1.4,1.4l-0.3,2l1.8-0.9l1.8,0.9l-0.3-2l1.4-1.4l-2-0.3l-0.9-1.8L13.2,10.2z"
	/>
<path id="Path_2558" class="st0" d="M20.2,10.2l-2,0.3l1.4,1.4l-0.3,2l1.8-0.9l1.8,0.9l-0.3-2l1.4-1.4l-2-0.3L21,8.4L20.2,10.2z"/>
<path id="Path_2559" class="st0" d="M27,1.4H1c-0.5,0-0.9,0.4-0.9,0.9v17.9C0.1,20.6,0.5,21,1,21c0,0,0,0,0,0h5.6v4.6
	c0,0.1,0,0.1,0,0.2c0,0.2,0,0.4,0.1,0.5c0.3,0.4,0.8,0.5,1.2,0.2l8-5.5h11c0.5,0,0.9-0.4,0.9-0.9V2.2C27.9,1.7,27.5,1.4,27,1.4z
	 M26.1,19.3H15.7c-0.2,0-0.4,0.1-0.5,0.2L8.5,24v-3.8c0-0.2-0.1-0.5-0.3-0.7c-0.2-0.2-0.4-0.4-0.7-0.4H1.9V3.1h24.2L26.1,19.3z"/>
</svg>
