<?xml version="1.0" encoding="UTF-8"?><svg id="Calque_1" xmlns="http://www.w3.org/2000/svg" viewBox="0 0 28 28"><defs><style>.cls-1{opacity:.5;}.cls-2{fill:#0c1d2c;}.cls-3{fill:#e52521;}</style></defs><g class="cls-1"><path class="cls-2" d="M12.25,5.95c-.2-.2-.4-.3-.7-.3H2.55c-.6,0-1,.4-1,1V15.65c0,.3,.1,.5,.3,.7l10.6,10.6c.6,.6,1.5,1,2.3,1s1.7-.3,2.3-.9h0l5.8-5.8c.6-.6,1-1.4,1-2.3s-.3-1.7-1-2.3L12.25,5.95Zm9.2,13.7l-5.9,5.9h0c-.5,.5-1.3,.5-1.8,0L3.55,15.25V7.65h7.6l10.3,10.3c.4,.5,.4,1.3,0,1.7Z"/><circle class="cls-2" cx="8.05" cy="12.15" r="2"/><path class="cls-2" d="M16.45,5.15c0-.5,.1-1,.2-1.5l-2.5-2.5H4.75c-.6,0-1,.4-1,1s.4,1,1,1H13.35l3.3,3.3c-.1-.4-.2-.8-.2-1.3Z"/><path class="cls-2" d="M22.95,9.95c-.5,.1-.9,.2-1.5,.2-.5,0-.9-.1-1.3-.2l4.1,4.1c.2,.2,.5,.3,.7,.3s.5-.1,.7-.3c.4-.4,.4-1,0-1.4l-2.7-2.7Z"/></g><circle id="eVzBuReYQxt7" class="cls-3" cx="21.45" cy="5.15" r="3"/></svg>