<?xml version="1.0" encoding="utf-8"?>
<!-- Generator: Adobe Illustrator 27.0.1, SVG Export Plug-In . SVG Version: 6.00 Build 0)  -->
<svg version="1.1" id="Calque_1" xmlns="http://www.w3.org/2000/svg" xmlns:xlink="http://www.w3.org/1999/xlink" x="0px" y="0px"
	 viewBox="0 0 28 28" style="enable-background:new 0 0 28 28;" xml:space="preserve">
<style type="text/css">
	.st0{fill:#444444;}
</style>
<path class="st0" d="M17.8,21.2c-0.5,0-1,0.4-1,1v2.2c0,0.7-0.6,1.2-1.2,1.2H3.5c-0.7,0-1.2-0.6-1.2-1.2V3.5c0-0.7,0.6-1.2,1.2-1.2
	H5c0.2,0.2,0.3,0.8,0.3,1.1c0,1.1,0.9,2,2,2h4.4c1.1,0,2-0.9,2-2c0-0.2,0.2-0.9,0.3-1.1h1.5c0.7,0,1.2,0.6,1.2,1.2v2.2
	c0,0.5,0.4,0.9,1,0.9s1-0.4,1-0.9V3.5c0-1.7-1.4-3.1-3.1-3.1H3.5c-1.7,0-3.1,1.4-3.1,3.1v20.9c0,1.7,1.4,3.1,3.1,3.1h12.1
	c1.7,0,3.1-1.4,3.1-3.1v-2.2C18.8,21.8,18.3,21.2,17.8,21.2z M7,2.3h5.1c-0.1,0.4-0.2,0.8-0.2,1.1c0,0.1-0.1,0.1-0.1,0.1H7.3
	c-0.1,0-0.1,0-0.1-0.1C7.2,3.1,7.1,2.7,7,2.3z"/>
<path class="st0" d="M25.5,8.1H13.4c-1.1,0-2,0.9-2,2v7.7c0,1.1,0.9,2,2,2h12.1c1.1,0,2-0.9,2-2v-7.7C27.5,9,26.6,8.1,25.5,8.1z
	 M13.3,12.8l5,2.6c0.4,0.2,0.8,0.3,1.2,0.3l0,0c0.4,0,0.8-0.1,1.2-0.3l5-2.6v5.1c0,0.1-0.1,0.1-0.1,0.1H13.4c-0.1,0-0.2-0.1-0.2-0.1
	L13.3,12.8L13.3,12.8z M25.6,10.6l-5.9,3.1c-0.2,0.1-0.4,0.1-0.6,0l-5.9-3.1v-0.5c0-0.1,0.1-0.1,0.1-0.1h12.1c0.1,0,0.1,0.1,0.1,0.1
	L25.6,10.6C25.6,10.6,25.6,10.6,25.6,10.6z"/>
</svg>
