<?xml version="1.0" encoding="utf-8"?>
<!-- Generator: Adobe Illustrator 27.0.1, SVG Export Plug-In . SVG Version: 6.00 Build 0)  -->
<svg version="1.1" id="Calque_1" xmlns="http://www.w3.org/2000/svg" xmlns:xlink="http://www.w3.org/1999/xlink" x="0px" y="0px"
	 viewBox="0 0 28 28" style="enable-background:new 0 0 28 28;" xml:space="preserve">
<style type="text/css">
	.st0{fill:#444444;}
</style>
<path class="st0" d="M22.2,3.4H21V2.1c0-0.5-0.4-0.9-0.9-0.9s-0.9,0.4-0.9,0.9v1.3H9.2V2.1c0-0.5-0.4-0.9-0.9-0.9S7.5,1.6,7.5,2.1
	v1.3H5.8c-2.2,0-3.9,1.7-3.9,3.9V23c0,2.2,1.7,3.9,3.9,3.9h16.5c2.2,0,3.9-1.7,3.9-3.9V7.3C26.1,5.1,24.4,3.4,22.2,3.4z M9.4,20.8
	c-0.6,0-1.1-0.5-1.1-1.1s0.5-1.1,1.1-1.1s1.1,0.5,1.1,1.1C10.4,20.3,10.1,20.8,9.4,20.8z M9.4,16.7c-0.6,0-1.1-0.5-1.1-1.1
	s0.5-1.1,1.1-1.1s1.1,0.5,1.1,1.1C10.4,16.3,10.1,16.7,9.4,16.7z M9.4,12.7c-0.6,0-1.1-0.5-1.1-1.1s0.5-1.1,1.1-1.1s1.1,0.5,1.1,1.1
	C10.4,12.2,10.1,12.7,9.4,12.7z M14,20.8c-0.6,0-1.1-0.5-1.1-1.1s0.5-1.1,1.1-1.1s1.1,0.5,1.1,1.1C15,20.3,14.6,20.8,14,20.8z
	 M14,16.7c-0.6,0-1.1-0.5-1.1-1.1s0.5-1.1,1.1-1.1s1.1,0.5,1.1,1.1C15,16.3,14.6,16.7,14,16.7z M14,12.7c-0.6,0-1.1-0.5-1.1-1.1
	s0.5-1.1,1.1-1.1s1.1,0.5,1.1,1.1C15,12.2,14.6,12.7,14,12.7z M18.6,20.8c-0.6,0-1.1-0.5-1.1-1.1s0.5-1.1,1.1-1.1s1.1,0.5,1.1,1.1
	C19.6,20.3,19.2,20.8,18.6,20.8z M18.6,16.7c-0.6,0-1.1-0.5-1.1-1.1s0.5-1.1,1.1-1.1s1.1,0.5,1.1,1.1C19.6,16.3,19.2,16.7,18.6,16.7
	z M18.6,12.7c-0.6,0-1.1-0.5-1.1-1.1s0.5-1.1,1.1-1.1s1.1,0.5,1.1,1.1C19.6,12.2,19.2,12.7,18.6,12.7z"/>
</svg>
