<?xml version="1.0" encoding="utf-8"?>
<!-- Generator: Adobe Illustrator 27.2.0, SVG Export Plug-In . SVG Version: 6.00 Build 0)  -->
<svg version="1.1" id="Group_1351" xmlns="http://www.w3.org/2000/svg" xmlns:xlink="http://www.w3.org/1999/xlink" x="0px" y="0px"
	 viewBox="0 0 28 28" style="enable-background:new 0 0 28 28;" xml:space="preserve">
<style type="text/css">
	.st0{fill:#444444;}
	.st1{fill:#0C1D2C;}
</style>
<path id="Path_2555" class="st0" d="M17.2,8.3"/>
<path class="st1" d="M27,1.4H1c-0.5,0-0.9,0.4-0.9,0.9v17.9C0.1,20.6,0.5,21,1,21c0,0,0,0,0,0h5.6v4.6c0,0.1,0,0.1,0,0.2
	c0,0.2,0,0.4,0.1,0.5c0.3,0.4,0.8,0.5,1.2,0.2l8-5.5h11c0.5,0,0.9-0.4,0.9-0.9V2.2C27.9,1.7,27.5,1.4,27,1.4z M9,13.8l-1.8-0.9
	l-1.8,0.9l0.3-2l-1.4-1.4l2-0.3l0.9-1.8l0.9,1.8l2,0.3l-1.4,1.4L9,13.8z M15.6,11.9l0.3,2l-1.8-0.9l-1.8,0.9l0.3-2l-1.4-1.4l2-0.3
	l0.9-1.8l0.9,1.8l2,0.3L15.6,11.9z M22.8,13.8L21,12.9l-1.8,0.9l0.3-2l-1.4-1.4l2-0.3L21,8.4l0.9,1.8l2,0.3l-1.4,1.4L22.8,13.8z"/>
</svg>
