<?xml version="1.0" encoding="UTF-8"?><svg id="Calque_1" xmlns="http://www.w3.org/2000/svg" viewBox="0 0 28 28"><defs><style>.cls-1{fill:#0c1d2c;}</style></defs><path class="cls-1" d="M22.25,3.4h-1.3v-1.3c0-.5-.4-.9-.9-.9s-.9,.4-.9,.9v1.3H9.25v-1.3c0-.5-.4-.9-.9-.9s-.9,.4-.9,.9v1.3h-1.7c-2.2,0-3.9,1.7-3.9,3.9v15.7c0,2.2,1.7,3.9,3.9,3.9H22.25c2.2,0,3.9-1.7,3.9-3.9V7.3c0-2.2-1.7-3.9-3.9-3.9Zm2.1,19.5c0,1.2-.9,2.1-2.1,2.1H5.75c-1.2,0-2.1-.9-2.1-2.1V7.3c0-1.2,.9-2.1,2.1-2.1h1.7v.7c0,.5,.4,.9,.9,.9s.9-.4,.9-.9v-.7h9.9v.7c0,.5,.4,.9,.9,.9s.9-.4,.9-.9v-.7h1.3c1.2,0,2.1,.9,2.1,2.1,0,0,0,15.6,0,15.6Z"/><circle class="cls-1" cx="18.65" cy="11.6" r="1.1"/><circle class="cls-1" cx="14.05" cy="11.6" r="1.1"/><circle class="cls-1" cx="9.45" cy="11.6" r="1.1"/><circle class="cls-1" cx="18.65" cy="15.7" r="1.1"/><circle class="cls-1" cx="14.05" cy="15.7" r="1.1"/><circle class="cls-1" cx="9.45" cy="15.7" r="1.1"/><circle class="cls-1" cx="18.65" cy="19.7" r="1.1"/><circle class="cls-1" cx="14.05" cy="19.7" r="1.1"/><circle class="cls-1" cx="9.45" cy="19.7" r="1.1"/></svg>