<?xml version="1.0" encoding="utf-8"?>
<!-- Generator: Adobe Illustrator 27.0.1, SVG Export Plug-In . SVG Version: 6.00 Build 0)  -->
<svg version="1.1" id="Calque_1" xmlns="http://www.w3.org/2000/svg" xmlns:xlink="http://www.w3.org/1999/xlink" x="0px" y="0px"
	 viewBox="0 0 28 28" style="enable-background:new 0 0 28 28;" xml:space="preserve">
<style type="text/css">
	.st0{opacity:0.5;}
	.st1{fill:#0C1D2C;}
</style>
<g class="st0">
	<path class="st1" d="M22.2,3.4H21V2.1c0-0.5-0.4-0.9-0.9-0.9s-0.9,0.4-0.9,0.9v1.3H9.2V2.1c0-0.5-0.4-0.9-0.9-0.9S7.5,1.6,7.5,2.1
		v1.3H5.8c-2.2,0-3.9,1.7-3.9,3.9V23c0,2.2,1.7,3.9,3.9,3.9h16.5c2.2,0,3.9-1.7,3.9-3.9V7.3C26.1,5.1,24.4,3.4,22.2,3.4z M24.4,22.9
		c0,1.2-0.9,2.1-2.1,2.1H5.8c-1.2,0-2.1-0.9-2.1-2.1V7.3c0-1.2,0.9-2.1,2.1-2.1h1.7v0.7c0,0.5,0.4,0.9,0.9,0.9s0.9-0.4,0.9-0.9V5.2
		h9.9v0.7c0,0.5,0.4,0.9,0.9,0.9s0.9-0.4,0.9-0.9V5.2h1.3c1.2,0,2.1,0.9,2.1,2.1C24.3,7.3,24.3,22.9,24.4,22.9z"/>
	<circle class="st1" cx="18.6" cy="11.6" r="1.1"/>
	<circle class="st1" cx="14.1" cy="11.6" r="1.1"/>
	<circle class="st1" cx="9.4" cy="11.6" r="1.1"/>
	<circle class="st1" cx="18.6" cy="15.7" r="1.1"/>
	<circle class="st1" cx="14.1" cy="15.7" r="1.1"/>
	<circle class="st1" cx="9.4" cy="15.7" r="1.1"/>
	<circle class="st1" cx="18.6" cy="19.7" r="1.1"/>
	<circle class="st1" cx="14.1" cy="19.7" r="1.1"/>
	<circle class="st1" cx="9.4" cy="19.7" r="1.1"/>
</g>
</svg>
