<?xml version="1.0" encoding="utf-8"?>
<!-- Generator: Adobe Illustrator 27.0.1, SVG Export Plug-In . SVG Version: 6.00 Build 0)  -->
<svg version="1.1" id="Calque_1" xmlns="http://www.w3.org/2000/svg" xmlns:xlink="http://www.w3.org/1999/xlink" x="0px" y="0px"
	 viewBox="0 0 28 28" style="enable-background:new 0 0 28 28;" xml:space="preserve">
<style type="text/css">
	.st0{fill:#444444;}
	.st1{fill:#E52521;}
</style>
<g>
	<path class="st0" d="M22.9,16.6L12.2,5.9c-0.2-0.2-0.4-0.3-0.7-0.3h-9c-0.6,0-1,0.4-1,1v9c0,0.3,0.1,0.5,0.3,0.7L12.5,27
		c0.6,0.6,1.5,1,2.3,1s1.7-0.3,2.3-0.9l5.8-5.8c0.6-0.6,1-1.4,1-2.3S23.6,17.2,22.9,16.6z M8.1,14.1c-1.1,0-2-0.9-2-2s0.9-2,2-2
		s2,0.9,2,2S9.2,14.1,8.1,14.1z"/>
	<path class="st0" d="M16.5,5.2c0-0.5,0.1-1,0.2-1.5l-2.5-2.5H4.8c-0.6,0-1,0.4-1,1s0.4,1,1,1h8.6l3.3,3.3C16.5,6,16.4,5.6,16.5,5.2
		z"/>
	<path class="st0" d="M23,9.9c-0.5,0.1-0.9,0.2-1.5,0.2c-0.5,0-0.9-0.1-1.3-0.2l4.1,4.1c0.2,0.2,0.5,0.3,0.7,0.3s0.5-0.1,0.7-0.3
		c0.4-0.4,0.4-1,0-1.4C25.7,12.6,23,9.9,23,9.9z"/>
</g>
<circle class="st1" cx="21.5" cy="5.2" r="3"/>
</svg>
