<?xml version="1.0" encoding="UTF-8"?><svg id="Calque_1" xmlns="http://www.w3.org/2000/svg" viewBox="0 0 28 28"><defs><style>.cls-1{opacity:.5;}.cls-2{fill:#0c1d2c;}</style></defs><g class="cls-1"><path class="cls-2" d="M17.8,21.25c-.5,0-1,.4-1,1v2.2c0,.7-.6,1.2-1.2,1.2H3.5c-.7,0-1.2-.6-1.2-1.2V3.55c0-.7,.6-1.2,1.2-1.2h1.5c.2,.2,.3,.8,.3,1.1,0,1.1,.9,2,2,2h4.4c1.1,0,2-.9,2-2,0-.2,.2-.9,.3-1.1h1.5c.7,0,1.2,.6,1.2,1.2v2.2c0,.5,.4,.9,1,.9s1-.4,1-.9V3.55c0-1.7-1.4-3.1-3.1-3.1H3.5C1.8,.45,.4,1.85,.4,3.55V24.45c0,1.7,1.4,3.1,3.1,3.1H15.6c1.7,0,3.1-1.4,3.1-3.1v-2.2c.1-.5-.4-1-.9-1ZM7,2.35h5.1c-.1,.4-.2,.8-.2,1.1,0,.1-.1,.1-.1,.1H7.3q-.1,0-.1-.1c0-.3-.1-.7-.2-1.1Z"/><path class="cls-2" d="M25.5,8.15H13.4c-1.1,0-2,.9-2,2v7.7c0,1.1,.9,2,2,2h12.1c1.1,0,2-.9,2-2v-7.7c0-1.1-.9-2-2-2Zm-12.2,4.6l5,2.6c.4,.2,.8,.3,1.2,.3h0c.4,0,.8-.1,1.2-.3l5-2.6v5.1c0,.1-.1,.1-.1,.1H13.4c-.1,0-.2-.1-.2-.1l.1-5.1h0Zm12.3-2.1l-5.9,3.1c-.2,.1-.4,.1-.6,0l-5.9-3.1v-.5c0-.1,.1-.1,.1-.1h12.1c.1,0,.1,.1,.1,.1l.1,.5h0Z"/></g></svg>