<?xml version="1.0" encoding="utf-8"?>
<!-- Generator: Adobe Illustrator 27.2.0, SVG Export Plug-In . SVG Version: 6.00 Build 0)  -->
<svg version="1.1" id="Calque_1" xmlns="http://www.w3.org/2000/svg" xmlns:xlink="http://www.w3.org/1999/xlink" x="0px" y="0px"
	 viewBox="0 0 28 28" style="enable-background:new 0 0 28 28;" xml:space="preserve">
<style type="text/css">
	.st0{fill:#444444;}
	.st1{fill:#E52521;}
</style>
<g>
	<path class="st0" d="M12.2,5.9c-0.2-0.2-0.4-0.3-0.7-0.3h-9c-0.6,0-1,0.4-1,1v9c0,0.3,0.1,0.5,0.3,0.7L12.5,27c0.6,0.6,1.5,1,2.3,1
		s1.7-0.3,2.3-0.9l0,0l5.8-5.8c0.6-0.6,1-1.4,1-2.3s-0.3-1.7-1-2.3L12.2,5.9z M21.5,19.6l-5.9,5.9l0,0c-0.5,0.5-1.3,0.5-1.8,0
		L3.5,15.2V7.7h7.6L21.5,18C21.9,18.5,21.9,19.2,21.5,19.6z"/>
	<circle class="st0" cx="8.1" cy="12.1" r="2"/>
	<path class="st0" d="M16.7,3.7l-2.5-2.5H4.8c-0.6,0-1,0.4-1,1s0.4,1,1,1h8.6l3.3,3.3C16.5,6,16.2,4.8,16.7,3.7z"/>
	<path class="st0" d="M23,9.9c-0.5,0.1-0.9,0.2-1.5,0.2c-0.5,0-0.9-0.1-1.3-0.2l4.1,4.1c0.2,0.2,0.5,0.3,0.7,0.3s0.5-0.1,0.7-0.3
		c0.4-0.4,0.4-1,0-1.4C25.7,12.6,23,9.9,23,9.9z"/>
</g>
<circle class="st1" cx="21.5" cy="5.2" r="3"/>
</svg>
