<svg xmlns="http://www.w3.org/2000/svg" width="30" height="30" viewBox="0 0 30 30"><g transform="translate(12.044 1)"><rect width="30" height="30" transform="translate(-12.044 -1)" fill="#3b3b3b" opacity="0"/><path d="M12.7,14.195H8.218A8.218,8.218,0,0,0,0,22.413a1.494,1.494,0,0,0,1.494,1.494h17.93a1.494,1.494,0,0,0,1.494-1.494A8.218,8.218,0,0,0,12.7,14.195M2.287,21.666a5.983,5.983,0,0,1,5.93-5.23H12.7a5.986,5.986,0,0,1,5.93,5.23Zm8.172-9.712A5.977,5.977,0,1,0,4.483,5.977a5.977,5.977,0,0,0,5.977,5.977m0-9.712A3.735,3.735,0,1,1,6.724,5.977a3.74,3.74,0,0,1,3.735-3.735" transform="translate(-7.09 2.074)" fill="#3b3b3b"/></g></svg>