<svg xmlns="http://www.w3.org/2000/svg" width="30" height="30" viewBox="0 0 30 30"><g transform="translate(12.044 1)"><rect width="30" height="30" transform="translate(-12.044 -1)" fill="#3b3b3b" opacity="0"/><path d="M11.144,14.207h0a8.218,8.218,0,0,0-8.218,8.218A1.494,1.494,0,0,0,4.42,23.919H17.868a1.494,1.494,0,0,0,1.494-1.494,8.218,8.218,0,0,0-8.218-8.218m-5.93,7.471a5.983,5.983,0,0,1,5.93-5.23h0a5.986,5.986,0,0,1,5.93,5.23Z" transform="translate(-8.188 1.296)" fill="#3b3b3b"/><circle cx="5" cy="5" r="5" transform="translate(-2.044 4.5)" fill="#fff"/><path d="M5,2.3A2.7,2.7,0,1,0,7.7,5,2.7,2.7,0,0,0,5,2.3M5,0A5,5,0,1,1,0,5,5,5,0,0,1,5,0Z" transform="translate(-2.044 4.5)" fill="#3b3b3b"/></g></svg>