<svg xmlns="http://www.w3.org/2000/svg" width="32.5" height="32.5" viewBox="0 0 32.5 32.5"><g transform="translate(0.25 0.25)"><path d="M367.25,190a1.25,1.25,0,1,1-1.25,1.25,1.25,1.25,0,0,1,1.25-1.25" transform="translate(-343.125 -178.125)" fill="#3b3b3b"/><path d="M27,2.5H25.375V1.25a1.25,1.25,0,0,0-2.5,0V2.5H17.187V1.25a1.25,1.25,0,0,0-2.5,0V2.5H9.062V1.25a1.25,1.25,0,0,0-2.5,0V2.5H5a5.006,5.006,0,0,0-5,5V27a5.006,5.006,0,0,0,5,5h9.562a1.25,1.25,0,1,0,0-2.5H5A2.5,2.5,0,0,1,2.5,27V7.5A2.5,2.5,0,0,1,5,5H6.562V6.25a1.25,1.25,0,0,0,2.5,0V5h5.625V6.25a1.25,1.25,0,0,0,2.5,0V5h5.687V6.25a1.25,1.25,0,0,0,2.5,0V5H27a2.5,2.5,0,0,1,2.5,2.5v7.125a1.25,1.25,0,0,0,2.5,0V7.5a5.006,5.006,0,0,0-5-5" transform="translate(0 0)" fill="#3b3b3b" stroke="#fff" stroke-width="0.5"/><path d="M277.563,270a7.563,7.563,0,1,0,7.563,7.563A7.571,7.571,0,0,0,277.563,270m0,12.625a5.062,5.062,0,1,1,5.062-5.062,5.068,5.068,0,0,1-5.062,5.062" transform="translate(-253.125 -253.125)" fill="#3b3b3b" stroke="#fff" stroke-width="0.5"/><path d="M374.063,332.563H373.5V331.25a1.25,1.25,0,1,0-2.5,0v2.563a1.25,1.25,0,0,0,1.25,1.25h1.812a1.25,1.25,0,0,0,0-2.5" transform="translate(-347.813 -309.375)" fill="#3b3b3b" stroke="#fff" stroke-width="0.5"/><path d="M280.25,190a1.25,1.25,0,1,1-1.25,1.25,1.25,1.25,0,0,1,1.25-1.25" transform="translate(-261.563 -178.125)" fill="#3b3b3b"/><path d="M193.25,277a1.25,1.25,0,1,1-1.25,1.25,1.25,1.25,0,0,1,1.25-1.25" transform="translate(-180 -259.688)" fill="#3b3b3b"/><path d="M106.25,190a1.25,1.25,0,1,1-1.25,1.25,1.25,1.25,0,0,1,1.25-1.25" transform="translate(-98.438 -178.125)" fill="#3b3b3b"/><path d="M106.25,277a1.25,1.25,0,1,1-1.25,1.25,1.25,1.25,0,0,1,1.25-1.25" transform="translate(-98.438 -259.688)" fill="#3b3b3b"/><path d="M106.25,364a1.25,1.25,0,1,1-1.25,1.25,1.25,1.25,0,0,1,1.25-1.25" transform="translate(-98.438 -341.25)" fill="#3b3b3b"/><path d="M193.25,364a1.25,1.25,0,1,1-1.25,1.25,1.25,1.25,0,0,1,1.25-1.25" transform="translate(-180 -341.25)" fill="#3b3b3b"/><path d="M193.25,190a1.25,1.25,0,1,1-1.25,1.25,1.25,1.25,0,0,1,1.25-1.25" transform="translate(-180 -178.125)" fill="#3b3b3b"/></g></svg>