<svg xmlns="http://www.w3.org/2000/svg" width="30.229" height="30" viewBox="0 0 30.229 30"><g transform="translate(12.171 1)"><rect width="30" height="30" transform="translate(-12.044 -1)" fill="#3b3b3b" opacity="0"/><g transform="translate(-12.044 1.283)"><path d="M29.93,21.333a.774.774,0,0,0-1-.473l-3.021,1.119L24.155,17.26a6.425,6.425,0,0,0,2.979-7.85A61.541,61.541,0,0,0,22.526.717,1.473,1.473,0,0,0,20.758.092L17.934,1.138a.811.811,0,0,0-.4,1.158.739.739,0,0,0,.888.347L21.234,1.6C22.1,3,22.927,4.444,23.642,5.766L17.8,7.948a.78.78,0,0,0-.49.6l0,.018a.763.763,0,0,0,.988.888l6.135-2.273a27.666,27.666,0,0,1,1.287,2.779,4.837,4.837,0,0,1-2.505,6.06,2.4,2.4,0,0,1-.522.193,4.662,4.662,0,0,1-5.272-2.032.74.74,0,0,0-1.208-.084.822.822,0,0,0-.064.957,6.192,6.192,0,0,0,6.595,2.755l1.757,4.716-2.827,1.047a.8.8,0,0,0-.465,1.015.774.774,0,0,0,1,.473l7.313-2.708A.746.746,0,0,0,29.93,21.333ZM15.5,2.418,9.221.091A1.475,1.475,0,0,0,7.453.709a62.126,62.126,0,0,0-4.61,8.66,6.426,6.426,0,0,0,2.979,7.85L4.065,21.981,1.044,20.862a.774.774,0,0,0-1,.473A.8.8,0,0,0,.512,22.35l7.313,2.708a.774.774,0,0,0,1-.473.8.8,0,0,0-.465-1.015L5.53,22.523l1.757-4.716a6.245,6.245,0,0,0,7.256-4.058A61.992,61.992,0,0,0,16.5,4.119,1.592,1.592,0,0,0,15.5,2.418ZM13.077,13.2a4.705,4.705,0,0,1-5.746,3,1.7,1.7,0,0,1-.521-.195,4.835,4.835,0,0,1-2.505-6.06A27.475,27.475,0,0,1,5.592,7.174l8.255,3.059A27.245,27.245,0,0,1,13.077,13.2ZM14.17,8.669l-7.833-2.9C7.05,4.443,7.838,3,8.743,1.6l6.21,2.3C14.733,5.536,14.456,7.188,14.17,8.669Z" transform="translate(0 0)" fill="#3b3b3b" stroke="#3b3b3b" stroke-width="0.2"/></g></g></svg>