<svg xmlns="http://www.w3.org/2000/svg" width="30" height="30" viewBox="0 0 30 30"><g transform="translate(12.044 1)"><rect width="30" height="30" transform="translate(-12.044 -1)" fill="#3b3b3b" opacity="0"/><g transform="translate(-8.905 1.641)"><path d="M22.712,25.347a.8.8,0,0,0-.8.8v8.217H6.975V26.142a.8.8,0,1,0-1.6,0v9.018a.8.8,0,0,0,.8.8H22.706a.8.8,0,0,0,.8-.8V26.142a.8.8,0,0,0-.79-.8Z" transform="translate(-2.254 -10.596)" fill="#3b3b3b"/><path d="M24.088,6.968H19.616A3.693,3.693,0,0,0,21.254,3.8,3.687,3.687,0,0,0,17.77.006h-.041c-2.9,0-4.646,2.509-5.511,4.437C11.312,2.509,9.6,0,6.678,0H6.643A3.687,3.687,0,0,0,3.159,3.8,3.676,3.676,0,0,0,4.773,6.968H.8a.8.8,0,0,0-.8.8v4.913a.8.8,0,0,0,.8.8H24.082a.8.8,0,0,0,.8-.8V7.776a.79.79,0,0,0-.79-.807ZM17.7,1.585a2.1,2.1,0,0,1,1.974,2.172v.075A2.091,2.091,0,0,1,17.7,6H13.275c.557-1.55,1.928-4.4,4.408-4.408ZM4.721,3.769A2.091,2.091,0,0,1,6.7,1.6C9.164,1.6,10.54,4.454,11.109,6H6.7A2.085,2.085,0,0,1,4.721,3.833ZM23.3,11.9H1.6V8.589H23.286Z" transform="translate(0)" fill="#3b3b3b"/></g></g></svg>