<svg xmlns="http://www.w3.org/2000/svg" width="32" height="32" viewBox="0 0 32 32"><g transform="translate(0.001 0)"><rect width="32" height="32" transform="translate(-0.001 0)" fill="#fff"/><g transform="translate(2.709 0.247)"><path d="M22.64,206.458a1.193,1.193,0,0,0-1.709-.019,1.247,1.247,0,0,0-.019,1.74l.028.029a11.1,11.1,0,0,1,3.225,7.872c0,1.505-4.236,3.692-10.875,3.692s-10.875-2.188-10.875-3.694A11.1,11.1,0,0,1,5.6,208.248a1.247,1.247,0,0,0,.022-1.74,1.193,1.193,0,0,0-1.709-.022l-.022.022A13.572,13.572,0,0,0,0,216.08c0,4,6.847,6.153,13.291,6.153s13.291-2.156,13.291-6.153a13.562,13.562,0,0,0-3.942-9.621" transform="translate(0 -190.727)" fill="#3b3b3b"/><path d="M72.37,17.227a8.494,8.494,0,0,0,8.369-8.614A8.373,8.373,0,1,0,64,8.614a8.5,8.5,0,0,0,8.369,8.614m0-14.766a6.067,6.067,0,0,1,5.978,6.153,5.98,5.98,0,1,1-11.956,0A6.074,6.074,0,0,1,72.37,2.461" transform="translate(-59.079 0)" fill="#3b3b3b"/></g></g></svg>