<svg xmlns="http://www.w3.org/2000/svg" width="34" height="34" viewBox="0 0 34 34"><g transform="translate(-216.956 3.5)"><circle cx="17" cy="17" r="17" transform="translate(216.956 -3.5)" fill="#fff"/><path d="M17,1A16,16,0,0,0,5.686,28.314,16,16,0,0,0,28.314,5.686,15.9,15.9,0,0,0,17,1m0-1A17,17,0,1,1,0,17,17,17,0,0,1,17,0Z" transform="translate(216.956 -3.5)" fill="#707070"/><path d="M11.585,1H0A1,1,0,0,1-1,0,1,1,0,0,1,0-1H11.585a1,1,0,0,1,1,1A1,1,0,0,1,11.585,1Z" transform="translate(228.164 13.5)" fill="#3b3b3b"/><path d="M0,12.585a1,1,0,0,1-1-1V0A1,1,0,0,1,0-1,1,1,0,0,1,1,0V11.585A1,1,0,0,1,0,12.585Z" transform="translate(233.956 7.708)" fill="#3b3b3b"/></g></svg>