<svg xmlns="http://www.w3.org/2000/svg" width="30" height="30" viewBox="0 0 30 30"><g transform="translate(12.044 1)"><rect width="30" height="30" transform="translate(-12.044 -1)" fill="#3b3b3b" opacity="0"/><g transform="translate(-10.132 1.286)"><path d="M6.932,28.142l-.619-.087A6.939,6.939,0,0,1,.9,24.4c-2.21-3.714.34-13.178.427-13.518l.167-.619.619.173a16.571,16.571,0,0,1,2.7.9l.619.254-.421,1.188-.619-.254c-.761-.34-1.529-.508-1.956-.681C1.664,14.791.476,21.24,2,23.8A5.682,5.682,0,0,0,6.338,26.78l.619.087Z" transform="translate(0.002 -3.909)" fill="#3b3b3b" stroke="#3b3b3b" stroke-width="0.5"/><path d="M31.161,28.157,31,26.882l.619-.087a6.047,6.047,0,0,0,4.333-2.977c1.529-2.637.34-9.012-.427-11.989a19.535,19.535,0,0,0-1.956.681l-.619.173-.421-1.195.619-.167c1.529-.508,2.637-.848,2.637-.848L36.4,10.3l.167.619c.087.427,2.724,9.78.427,13.617a7.533,7.533,0,0,1-5.36,3.658Z" transform="translate(-11.811 -3.925)" fill="#3b3b3b" stroke="#3b3b3b" stroke-width="0.5"/><path d="M15.8,23.805A8.381,8.381,0,0,1,7.36,15.641v-.254c0-4.933,7.824-14.366,8.158-14.769L16.032,0l.508.619c.34.427,8.078,9.86,8.078,14.793a8.437,8.437,0,0,1-8.331,8.48h-.167C15.859,23.805,15.859,23.805,15.8,23.805ZM15.97,1.956C14.243,4.079,8.635,11.476,8.635,15.3v.26a7.236,7.236,0,0,0,7.31,6.97h.173a7.137,7.137,0,0,0,7.056-7.23c0-3.825-5.515-11.222-7.23-13.345Z" transform="translate(-2.804)" fill="#3b3b3b" stroke="#3b3b3b" stroke-width="0.5"/></g></g></svg>